<svg xmlns="http://www.w3.org/2000/svg" xmlns:ev="http://www.w3.org/2001/xml-events" xmlns:xlink="http://www.w3.org/1999/xlink" width="200mm" height="200mm" baseProfile="full" version="1.1" viewBox="0 0 200 200"><rect width="200" height="200" x="0" y="0" fill="#1a1a1a"/><text style="dominant-baseline:central;font-size:9px;font-family:Arial" x="100" y="100" fill="#e1ed5e" alignment-baseline="middle" text-anchor="middle">2020</text><line x1="100" x2="100" y1="15" y2="10" stroke="#e1ed5e" stroke-width=".3"/><path id="id25" fill="none" stroke="none" d="M 100.0 14.0 a86.0,86.0 0 0,1 42.35913384403234,11.155469271406648"/><text fill="#e1ed5e" text-anchor="middle" style="font-size:6.75px;font-family:Arial"><textPath startOffset="22.146" xlink:href="#id25">January</textPath></text><line x1="143.13" x2="145.667" y1="26.755" y2="22.447" stroke="#e1ed5e" stroke-width=".3"/><path id="id26" fill="none" stroke="none" d="M 143.63769802327073 25.89364864446614 a86.0,86.0 0 0,1 29.32050498858742,28.57503671076993"/><text fill="#e1ed5e" text-anchor="middle" style="font-size:6.75px;font-family:Arial"><textPath startOffset="20.669" xlink:href="#id26">February</textPath></text><line x1="172.872" x2="177.158" y1="56.243" y2="53.669" stroke="#e1ed5e" stroke-width=".3"/><path id="id27" fill="none" stroke="none" d="M 173.72905801456457 55.72781907015455 a86.0,86.0 0 0,1 12.242430191666344,42.057860355516425"/><text fill="#e1ed5e" text-anchor="middle" style="font-size:6.75px;font-family:Arial"><textPath startOffset="22.146" xlink:href="#id27">March</textPath></text><line x1="184.997" x2="189.997" y1="99.27" y2="99.227" stroke="#e1ed5e" stroke-width=".3"/><path id="id28" fill="none" stroke="none" d="M 185.99683186730306 99.26182062694052 a86.0,86.0 0 0,1 -10.086455211305974,41.156179273409016"/><text fill="#e1ed5e" text-anchor="middle" style="font-size:6.75px;font-family:Arial"><textPath startOffset="21.407" xlink:href="#id28">April</textPath></text><line x1="174.331" x2="178.703" y1="141.23" y2="143.655" stroke="#e1ed5e" stroke-width=".3"/><path id="id29" fill="none" stroke="none" d="M 175.20536237346943 141.71514677278685 a86.0,86.0 0 0,1 -30.301960400862466,31.631185727798858"/><text fill="#e1ed5e" text-anchor="middle" style="font-size:6.75px;font-family:Arial"><textPath startOffset="22.146" xlink:href="#id29">May</textPath></text><line x1="143.13" x2="145.667" y1="173.245" y2="177.553" stroke="#e1ed5e" stroke-width=".3"/><path id="id30" fill="none" stroke="none" d="M 143.63769802327073 174.10635135553383 a86.0,86.0 0 0,1 -40.68552437913181,11.842963189579606"/><text fill="#e1ed5e" text-anchor="middle" style="font-size:6.75px;font-family:Arial"><textPath startOffset="21.407" xlink:href="#id30">June</textPath></text><line x1="101.459" x2="101.545" y1="184.987" y2="189.987" stroke="#e1ed5e" stroke-width=".3"/><path id="id31" fill="none" stroke="none" d="M 101.47630435890484 185.9873277026323 a86.0,86.0 0 0,1 -42.54439059252881,-10.42667462771756"/><text fill="#e1ed5e" text-anchor="middle" style="font-size:6.75px;font-family:Arial"><textPath startOffset="22.146" xlink:href="#id31">July</textPath></text><line x1="58.133" x2="55.671" y1="173.974" y2="178.326" stroke="#e1ed5e" stroke-width=".3"/><path id="id32" fill="none" stroke="none" d="M 57.64086615596768 174.84453072859336 a86.0,86.0 0 0,1 -31.369924170532247,-30.572349798747897"/><text fill="#e1ed5e" text-anchor="middle" style="font-size:6.75px;font-family:Arial"><textPath startOffset="22.146" xlink:href="#id32">August</textPath></text><line x1="26.388" x2="22.058" y1="142.5" y2="145" stroke="#e1ed5e" stroke-width=".3"/><path id="id33" fill="none" stroke="none" d="M 25.521815274538298 143.00000000000003 a86.0,86.0 0 0,1 -11.493303480769221,-40.785679425670985"/><text fill="#e1ed5e" text-anchor="middle" style="font-size:6.75px;font-family:Arial"><textPath startOffset="21.407" xlink:href="#id33">September</textPath></text><path fill="#4dd2ff" stroke="none" d="M 79.48165901384964 104.47187691870673 l -61.555022958451104 13.41563075612019 a84.0,84.0 0 0,0 -0.29496915670253276,-1.4115341948583637 l 61.776249825978 -12.35698010997642"/><path fill="#4cd7ff" stroke="none" d="M 79.22317932658666 103.0534771498775 l -61.92592676171976 9.100978697566719 a83.59111932655816,83.59111932655816 0 0,0 -0.1964609574311045,-1.4214936210550335 l 62.07303223570607 -8.0365967683116"/><line x1="15.003" x2="10.003" y1="100.73" y2="100.773" stroke="#e1ed5e" stroke-width=".3"/><path id="id34" fill="none" stroke="none" d="M 14.003168132696942 100.73817937305945 a86.0,86.0 0 0,1 10.791469493833604,-42.45332614584628"/><text fill="#e1ed5e" text-anchor="middle" style="font-size:6.75px;font-family:Arial"><textPath startOffset="22.146" xlink:href="#id34">October</textPath></text><line x1="26.388" x2="22.058" y1="57.5" y2="55" stroke="#e1ed5e" stroke-width=".3"/><path id="id35" fill="none" stroke="none" d="M 25.521815274538284 56.99999999999999 a86.0,86.0 0 0,1 29.574782752854787,-30.34633250058573"/><text fill="#e1ed5e" text-anchor="middle" style="font-size:6.75px;font-family:Arial"><textPath startOffset="21.407" xlink:href="#id35">November</textPath></text><path fill="#ff8c0c" stroke="none" d="M 83.2033758604659 87.39550010848427 l -22.10222171281534 -16.585919222049398 a48.63332989494378,48.63332989494378 0 0,0 0.5068241943897203,-0.6634491397313473 l 21.814245541071312 16.96288927502163"/><path fill="red" stroke="none" d="M 83.42222388311158 87.10902102172516 l -16.4215003613166 -12.76945800551675 a41.80203672411375,41.80203672411375 0 0,0 0.4453580420351662,-0.5626953374120457 l 16.19987588863987 13.04947328684348"/><path fill="#4dd4ff" stroke="none" d="M 84.10781606972428 86.27271002978789 l -47.56197251678973 -41.08289906269067 a83.84859445590722,83.84859445590722 0 0,0 0.9502398944347056,-1.0811985667351982 l 46.84972155839643 41.89330990723717"/><path fill="red" stroke="none" d="M 85.08716467003674 85.21462403516908 l -14.772254675931263 -14.645996847630549 a41.80203672411375,41.80203672411375 0 0,0 0.5096028169712651,-0.5052472635111985 l 14.518659938830021 14.89742412137042"/><path fill="#ff1202" stroke="none" d="M 85.34317274990677 84.96080404539775 l -15.102281031051113 -15.496270776201271 a42.638236996349676,42.638236996349676 0 0,0 0.528566964016471,-0.5063551948593306 l 14.834041581169341 15.75323810136617"/><path fill="red" stroke="none" d="M 85.86807049272753 84.46653392183569 l -13.998710313946136 -15.387034848130913 a41.80203672411375,41.80203672411375 0 0,0 0.5349366294182045,-0.4783436326087033 l 13.73250865770454 15.625074010623017"/><path fill="#41ffcf" stroke="none" d="M 86.40962598614128 83.9905735841838 l -36.532149854879336 -43.034780670263686 a77.44989211997718,77.44989211997718 0 0,0 1.0209579978667143,-0.8517194734498991 l 35.788017522850716 43.65556232762547"/><path fill="#4cdaff" stroke="none" d="M 86.68645165197937 83.75963576809568 l -39.564131666255584 -48.26180759500814 a83.40611017234124,83.40611017234124 0 0,0 1.115057198978587,-0.898211148739558 l 38.729823696921756 48.9338670375411"/><path fill="#f7ff19" stroke="none" d="M 87.54013794807813 83.09580414077388 l -20.31575561223577 -27.562224241835363 a55.240416633757626,55.240416633757626 0 0,0 0.7681547929481409,-0.5560848316860036 l 19.83961980891366 27.906909844894443"/><line x1="56.87" x2="54.333" y1="26.755" y2="22.447" stroke="#e1ed5e" stroke-width=".3"/><path id="id36" fill="none" stroke="none" d="M 56.362301976729285 25.89364864446614 a86.0,86.0 0 0,1 42.16139366436587,-11.88097634709845"/><text fill="#e1ed5e" text-anchor="middle" style="font-size:6.75px;font-family:Arial"><textPath startOffset="22.146" xlink:href="#id36">December</textPath></text></svg>