<?xml version="1.0" encoding="utf-8" ?>
<svg baseProfile="full" height="200mm" version="1.1" viewBox="0,0,200,200" width="200mm" xmlns="http://www.w3.org/2000/svg" xmlns:ev="http://www.w3.org/2001/xml-events" xmlns:xlink="http://www.w3.org/1999/xlink"><defs /><rect fill="#1a1a1a" height="200" width="200" x="0" y="0" /><text alignment-baseline="middle" fill="#e1ed5e" style="dominant-baseline: central; font-size:9.0px; font-family:Arial;" text-anchor="middle" x="100.0" y="100.0">2020</text><line stroke="#e1ed5e" stroke-width="0.3" x1="100.0" x2="100.0" y1="15.0" y2="10.0" /><path d="M 100.0 14.0 a86.0,86.0 0 0,1 42.35913384403234,11.155469271406648" fill="none" id="id25" stroke="none" /><text fill="#e1ed5e" style="font-size:6.75px; font-family:Arial;" text-anchor="middle"><textPath startOffset="22.145653131862478" xlink:href="#id25">January</textPath></text><line stroke="#e1ed5e" stroke-width="0.3" x1="143.13028292997686" x2="145.6673583964461" y1="26.7553504044142" y2="22.446841604673864" /><path d="M 143.63769802327073 25.89364864446614 a86.0,86.0 0 0,1 29.32050498858742,28.57503671076993" fill="none" id="id26" stroke="none" /><text fill="#e1ed5e" style="font-size:6.75px; font-family:Arial;" text-anchor="middle"><textPath startOffset="20.669276256404974" xlink:href="#id26">February</textPath></text><line stroke="#e1ed5e" stroke-width="0.3" x1="172.87174338648825" x2="177.1583165268699" y1="56.24261187166439" y2="53.66864786411523" /><path d="M 173.72905801456457 55.72781907015455 a86.0,86.0 0 0,1 12.242430191666344,42.057860355516425" fill="none" id="id27" stroke="none" /><text fill="#e1ed5e" style="font-size:6.75px; font-family:Arial;" text-anchor="middle"><textPath startOffset="22.145653131862474" xlink:href="#id27">March</textPath></text><line stroke="#e1ed5e" stroke-width="0.3" x1="184.99686870605535" x2="189.99668451229388" y1="99.2704041080226" y2="99.22748670261217" /><path d="M 185.99683186730306 99.26182062694052 a86.0,86.0 0 0,1 -10.086455211305974,41.156179273409016" fill="none" id="id28" stroke="none" /><text fill="#e1ed5e" style="font-size:6.75px; font-family:Arial;" text-anchor="middle"><textPath startOffset="21.40746469413373" xlink:href="#id28">April</textPath></text><line stroke="#e1ed5e" stroke-width="0.3" x1="174.33088141563837" x2="178.70328620479359" y1="141.23008692659167" y2="143.65538615756765" /><path d="M 175.20536237346943 141.71514677278685 a86.0,86.0 0 0,1 -30.301960400862466,31.631185727798858" fill="none" id="id29" stroke="none" /><text fill="#e1ed5e" style="font-size:6.75px; font-family:Arial;" text-anchor="middle"><textPath startOffset="22.145653131862474" xlink:href="#id29">May</textPath></text><line stroke="#e1ed5e" stroke-width="0.3" x1="143.1302829299769" x2="145.66735839644613" y1="173.24464959558577" y2="177.55315839532614" /><path d="M 143.63769802327073 174.10635135553383 a86.0,86.0 0 0,1 -40.68552437913181,11.842963189579606" fill="none" id="id30" stroke="none" /><text fill="#e1ed5e" style="font-size:6.75px; font-family:Arial;" text-anchor="middle"><textPath startOffset="21.407464694133747" xlink:href="#id30">June</textPath></text><line stroke="#e1ed5e" stroke-width="0.3" x1="101.45913802915013" x2="101.54496967792366" y1="184.9874750549273" y2="189.98673829345242" /><path d="M 101.47630435890484 185.9873277026323 a86.0,86.0 0 0,1 -42.54439059252881,-10.42667462771756" fill="none" id="id31" stroke="none" /><text fill="#e1ed5e" style="font-size:6.75px; font-family:Arial;" text-anchor="middle"><textPath startOffset="22.145653131862474" xlink:href="#id31">July</textPath></text><line stroke="#e1ed5e" stroke-width="0.3" x1="58.13341422392154" x2="55.67067388415222" y1="173.97424548756322" y2="178.32567169271397" /><path d="M 57.64086615596768 174.84453072859336 a86.0,86.0 0 0,1 -31.369924170532247,-30.572349798747897" fill="none" id="id32" stroke="none" /><text fill="#e1ed5e" style="font-size:6.75px; font-family:Arial;" text-anchor="middle"><textPath startOffset="22.145653131862474" xlink:href="#id32">August</textPath></text><line stroke="#e1ed5e" stroke-width="0.3" x1="26.387840678322732" x2="22.057713659400548" y1="142.50000000000003" y2="145.00000000000006" /><path d="M 25.521815274538298 143.00000000000003 a86.0,86.0 0 0,1 -11.493303480769221,-40.785679425670985" fill="none" id="id33" stroke="none" /><text fill="#e1ed5e" style="font-size:6.75px; font-family:Arial;" text-anchor="middle"><textPath startOffset="21.40746469413373" xlink:href="#id33">September</textPath></text><path d="M 79.48165901384964 104.47187691870673 l -61.555022958451104 13.41563075612019 a84.0,84.0 0 0,0 -0.29496915670253276,-1.4115341948583637 l 61.776249825978 -12.35698010997642" fill="#4dd2ff" stroke="none" /><path d="M 79.22317932658666 103.0534771498775 l -61.92592676171976 9.100978697566719 a83.59111932655816,83.59111932655816 0 0,0 -0.1964609574311045,-1.4214936210550335 l 62.07303223570607 -8.0365967683116" fill="#4cd7ff" stroke="none" /><line stroke="#e1ed5e" stroke-width="0.3" x1="15.003131293944662" x2="10.003315487706104" y1="100.72959589197737" y2="100.7725132973878" /><path d="M 14.003168132696942 100.73817937305945 a86.0,86.0 0 0,1 10.791469493833604,-42.45332614584628" fill="none" id="id34" stroke="none" /><text fill="#e1ed5e" style="font-size:6.75px; font-family:Arial;" text-anchor="middle"><textPath startOffset="22.145653131862435" xlink:href="#id34">October</textPath></text><line stroke="#e1ed5e" stroke-width="0.3" x1="26.387840678322718" x2="22.05771365940052" y1="57.49999999999999" y2="54.99999999999999" /><path d="M 25.521815274538284 56.99999999999999 a86.0,86.0 0 0,1 29.574782752854787,-30.34633250058573" fill="none" id="id35" stroke="none" /><text fill="#e1ed5e" style="font-size:6.75px; font-family:Arial;" text-anchor="middle"><textPath startOffset="21.40746469413373" xlink:href="#id35">November</textPath></text><path d="M 83.2033758604659 87.39550010848427 l -22.10222171281534 -16.585919222049398 a48.63332989494378,48.63332989494378 0 0,0 0.5068241943897203,-0.6634491397313473 l 21.814245541071312 16.96288927502163" fill="#ff8c0c" stroke="none" /><path d="M 83.42222388311158 87.10902102172516 l -16.4215003613166 -12.76945800551675 a41.80203672411375,41.80203672411375 0 0,0 0.4453580420351662,-0.5626953374120457 l 16.19987588863987 13.04947328684348" fill="#ff0000" stroke="none" /><path d="M 84.10781606972428 86.27271002978789 l -47.56197251678973 -41.08289906269067 a83.84859445590722,83.84859445590722 0 0,0 0.9502398944347056,-1.0811985667351982 l 46.84972155839643 41.89330990723717" fill="#4dd4ff" stroke="none" /><path d="M 85.08716467003674 85.21462403516908 l -14.772254675931263 -14.645996847630549 a41.80203672411375,41.80203672411375 0 0,0 0.5096028169712651,-0.5052472635111985 l 14.518659938830021 14.89742412137042" fill="#ff0000" stroke="none" /><path d="M 85.34317274990677 84.96080404539775 l -15.102281031051113 -15.496270776201271 a42.638236996349676,42.638236996349676 0 0,0 0.528566964016471,-0.5063551948593306 l 14.834041581169341 15.75323810136617" fill="#ff1202" stroke="none" /><path d="M 85.86807049272753 84.46653392183569 l -13.998710313946136 -15.387034848130913 a41.80203672411375,41.80203672411375 0 0,0 0.5349366294182045,-0.4783436326087033 l 13.73250865770454 15.625074010623017" fill="#ff0000" stroke="none" /><path d="M 86.40962598614128 83.9905735841838 l -36.532149854879336 -43.034780670263686 a77.44989211997718,77.44989211997718 0 0,0 1.0209579978667143,-0.8517194734498991 l 35.788017522850716 43.65556232762547" fill="#41ffcf" stroke="none" /><path d="M 86.68645165197937 83.75963576809568 l -39.564131666255584 -48.26180759500814 a83.40611017234124,83.40611017234124 0 0,0 1.115057198978587,-0.898211148739558 l 38.729823696921756 48.9338670375411" fill="#4cdaff" stroke="none" /><path d="M 87.54013794807813 83.09580414077388 l -20.31575561223577 -27.562224241835363 a55.240416633757626,55.240416633757626 0 0,0 0.7681547929481409,-0.5560848316860036 l 19.83961980891366 27.906909844894443" fill="#f7ff19" stroke="none" /><line stroke="#e1ed5e" stroke-width="0.3" x1="56.869717070023135" x2="54.33264160355391" y1="26.7553504044142" y2="22.446841604673864" /><path d="M 56.362301976729285 25.89364864446614 a86.0,86.0 0 0,1 42.16139366436587,-11.88097634709845" fill="none" id="id36" stroke="none" /><text fill="#e1ed5e" style="font-size:6.75px; font-family:Arial;" text-anchor="middle"><textPath startOffset="22.145653131862474" xlink:href="#id36">December</textPath></text></svg>