<svg xmlns="http://www.w3.org/2000/svg" xmlns:ev="http://www.w3.org/2001/xml-events" xmlns:xlink="http://www.w3.org/1999/xlink" width="200mm" height="200mm" baseProfile="full" version="1.1" viewBox="0 0 200 200"><rect width="200" height="200" x="0" y="0" fill="#1a1a1a"/><text style="dominant-baseline:central;font-size:9px;font-family:Arial" x="100" y="100" fill="#e1ed5e" alignment-baseline="middle" text-anchor="middle">2018</text><line x1="100" x2="100" y1="15" y2="10" stroke="#e1ed5e" stroke-width=".3"/><path id="id1" fill="none" stroke="none" d="M 100.0 14.0 a86.0,86.0 0 0,1 42.46469731375804,11.215312516191453"/><text fill="#e1ed5e" text-anchor="middle" style="font-size:6.75px;font-family:Arial"><textPath startOffset="22.206" xlink:href="#id1">January</textPath></text><line x1="143.237" x2="145.78" y1="26.818" y2="22.514" stroke="#e1ed5e" stroke-width=".3"/><path id="id2" fill="none" stroke="none" d="M 143.74570117128098 25.957352633546492 a86.0,86.0 0 0,1 28.547481713284135,27.462654790039103"/><text fill="#e1ed5e" text-anchor="middle" style="font-size:6.75px;font-family:Arial"><textPath startOffset="19.986" xlink:href="#id2">February</textPath></text><line x1="172.234" x2="176.484" y1="55.198" y2="52.563" stroke="#e1ed5e" stroke-width=".3"/><path id="id3" fill="none" stroke="none" d="M 173.08426987136738 54.67131705675599 a86.0,86.0 0 0,1 12.851231095245387,41.99856678651699"/><text fill="#e1ed5e" text-anchor="middle" style="font-size:6.75px;font-family:Arial"><textPath startOffset="22.206" xlink:href="#id3">March</textPath></text><line x1="184.98" x2="189.979" y1="98.171" y2="98.064" stroke="#e1ed5e" stroke-width=".3"/><path id="id4" fill="none" stroke="none" d="M 185.9800911702706 98.14961562048488 a86.0,86.0 0 0,1 -9.607161424134198,41.387399972396054"/><text fill="#e1ed5e" text-anchor="middle" style="font-size:6.75px;font-family:Arial"><textPath startOffset="21.466" xlink:href="#id4">April</textPath></text><line x1="174.801" x2="179.201" y1="140.371" y2="142.746" stroke="#e1ed5e" stroke-width=".3"/><path id="id5" fill="none" stroke="none" d="M 175.68104954172406 140.8457921977663 a86.0,86.0 0 0,1 -30.038265399797805,32.042727171017184"/><text fill="#e1ed5e" text-anchor="middle" style="font-size:6.75px;font-family:Arial"><textPath startOffset="22.206" xlink:href="#id5">May</textPath></text><line x1="143.865" x2="146.446" y1="172.807" y2="177.09" stroke="#e1ed5e" stroke-width=".3"/><path id="id6" fill="none" stroke="none" d="M 144.38136562736335 173.6633856474863 a86.0,86.0 0 0,1 -40.68145358897372,12.25698825130547"/><text fill="#e1ed5e" text-anchor="middle" style="font-size:6.75px;font-family:Arial"><textPath startOffset="21.466" xlink:href="#id6">June</textPath></text><line x1="102.195" x2="102.324" y1="184.972" y2="189.97" stroke="#e1ed5e" stroke-width=".3"/><path id="id7" fill="none" stroke="none" d="M 102.22038585953345 185.97133177190398 a86.0,86.0 0 0,1 -42.740103519485714,-10.115201625700543"/><text fill="#e1ed5e" text-anchor="middle" style="font-size:6.75px;font-family:Arial"><textPath startOffset="22.206" xlink:href="#id7">July</textPath></text><line x1="58.667" x2="56.235" y1="174.274" y2="178.643" stroke="#e1ed5e" stroke-width=".3"/><path id="id8" fill="none" stroke="none" d="M 58.180547188652646 175.14741091055294 a86.0,86.0 0 0,1 -31.652253787137756,-30.449443065178592"/><text fill="#e1ed5e" text-anchor="middle" style="font-size:6.75px;font-family:Arial"><textPath startOffset="22.206" xlink:href="#id8">August</textPath></text><line x1="26.633" x2="22.317" y1="142.922" y2="145.446" stroke="#e1ed5e" stroke-width=".3"/><path id="id9" fill="none" stroke="none" d="M 25.769776987707644 143.4266507060508 a86.0,86.0 0 0,1 -11.730757126820373,-40.83630448921669"/><text fill="#e1ed5e" text-anchor="middle" style="font-size:6.75px;font-family:Arial"><textPath startOffset="21.466" xlink:href="#id9">September</textPath></text><path fill="#ff2a04" stroke="none" d="M 79.4281124754447 104.21870165774334 l -32.31874868726228 6.62764457079595 a53.991319907927576,53.991319907927576 0 0,0 -0.1788657021298455,-0.9120323616580933 l 32.428044322367796 -6.070348482069901"/><path fill="#ff3404" stroke="none" d="M 79.29508885075956 103.50808413554451 l -32.861722584195824 5.567842664638106 a54.330071754180345,54.330071754180345 0 0,0 -0.1482906856368956,-0.9234062410154772 l 32.952695024194014 -5.001357193929415"/><line x1="15.007" x2="10.008" y1="101.097" y2="101.162" stroke="#e1ed5e" stroke-width=".3"/><path id="id10" fill="none" stroke="none" d="M 14.007167355692545 101.11028546245083 a86.0,86.0 0 0,1 10.666146001902534,-42.60595125391555"/><text fill="#e1ed5e" text-anchor="middle" style="font-size:6.75px;font-family:Arial"><textPath startOffset="22.206" xlink:href="#id10">October</textPath></text><path fill="red" stroke="none" d="M 79.01574976396665 99.18683210126434 l -31.485500430163555 -1.2201054570666592 a52.5091319249546,52.5091319249546 0 0,0 0.04277341819176993,-0.9028792542365849 l 31.459833403738287 1.761895817926253"/><path fill="#ff0100" stroke="none" d="M 79.71946130924805 94.55025226153421 l -30.47390162629523 -8.18888881614681 a52.55497710936158,52.55497710936158 0 0,0 0.24228652651277527,-0.8716335464888978 l 30.32842832921609 8.712233666054649"/><path fill="#ffc312" stroke="none" d="M 80.14247586403 93.16781622104843 l -36.64252396707973 -12.607234222832648 a59.75070215399168,59.75070215399168 0 0,0 0.3429887173387797,-0.9696752912741413 l 36.420082168931145 13.2361071405334"/><path fill="#ff3a05" stroke="none" d="M 81.26839172434947 90.50648371742162 l -29.951476527314316 -15.179947493827658 a54.578590680396715,54.578590680396715 0 0,0 0.4319260439284404,-0.8343436375711991 l 29.68574105022576 15.693263853659191"/><path fill="#ff2603" stroke="none" d="M 81.6062741919709 89.86733742301443 l -28.78308694844077 -15.855912554990828 a53.861467667056765,53.861467667056765 0 0,0 0.45434035361875796,-0.8082207924287625 l 28.50588895352958 16.349016857354375"/><line x1="26.266" x2="21.929" y1="57.711" y2="55.224" stroke="#e1ed5e" stroke-width=".3"/><path id="id11" fill="none" stroke="none" d="M 25.398753493254645 57.213857153982495 a86.0,86.0 0 0,1 29.58750427330803,-30.492523968695096"/><text fill="#e1ed5e" text-anchor="middle" style="font-size:6.75px;font-family:Arial"><textPath startOffset="21.466" xlink:href="#id11">November</textPath></text><path fill="#ff0200" stroke="none" d="M 81.78341655067845 89.55222093294921 l -27.3819708159464 -15.70441473294462 a52.56581961346273,52.56581961346273 0 0,0 0.4569229439988411,-0.7810294250424743 l 27.107588197477234 16.173423570340987"/><path fill="#ff2103" stroke="none" d="M 81.96595687620814 89.24020034530311 l -28.062702574901607 -16.74328132646717 a53.67801624004452,53.67801624004452 0 0,0 0.4802500586114404,-0.7894048231066557 l 27.77033671800395 17.223853922780897"/><path fill="#ff0e01" stroke="none" d="M 84.07557802195018 86.31012108654704 l -24.257775238510103 -20.853881301481927 a52.989436144739585,52.989436144739585 0 0,0 0.6005674736604918,-0.6865524409791015 l 23.895215901271765 21.26834929866397"/><path fill="#ff2303" stroke="none" d="M 84.31358615837235 86.03803664274999 l -24.447985628538014 -21.760351534165853 a53.72945004401503,53.72945004401503 0 0,0 0.6208472733039414,-0.6855550657539742 l 24.06979471461803 22.177959387189382"/><path fill="#ff4c07" stroke="none" d="M 85.57189188830299 84.74124197986013 l -23.500510258534998 -24.853473276519782 a55.20481130364838,55.20481130364838 0 0,0 0.696085657609462,-0.6469357565924917 l 23.06921671713068 25.25431361918692"/><path fill="#4dd2ff" stroke="none" d="M 85.83668400450813 84.49514656593479 l -42.48994798647562 -46.514560302195655 a84.0,84.0 0 0,0 1.0759560496161145,-0.9660039649228849 l 41.68298094926353 47.23906327588782"/><line x1="56.763" x2="54.22" y1="26.818" y2="22.514" stroke="#e1ed5e" stroke-width=".3"/><path id="id12" fill="none" stroke="none" d="M 56.25429882871897 25.957352633546506 a86.0,86.0 0 0,1 42.265352541879196,-11.944610805530505"/><text fill="#e1ed5e" text-anchor="middle" style="font-size:6.75px;font-family:Arial"><textPath startOffset="22.206" xlink:href="#id12">December</textPath></text></svg>